<svg width="70" height="70" viewBox="0 0 70 70" fill="none" xmlns="http://www.w3.org/2000/svg">
<circle cx="35" cy="35" r="35" fill="#22C55E"/>
<path d="M46.9729 30.3624L37.9167 21.5541C37.1495 20.8247 36.1315 20.418 35.0729 20.418C34.0144 20.418 32.9963 20.8247 32.2292 21.5541L23.1729 30.3041C22.7705 30.6553 22.4469 31.0877 22.2232 31.5727C21.9996 32.0577 21.8809 32.5846 21.875 33.1187V45.6312C21.8904 46.6923 22.3257 47.704 23.0856 48.4448C23.8455 49.1856 24.868 49.5949 25.9292 49.5832H44.0708C45.132 49.5949 46.1545 49.1856 46.9144 48.4448C47.6743 47.704 48.1096 46.6923 48.125 45.6312V33.1187C48.1239 32.606 48.0215 32.0986 47.8238 31.6257C47.6261 31.1527 47.3369 30.7234 46.9729 30.3624ZM34.1833 23.6541C34.4064 23.4502 34.6977 23.3371 35 23.3371C35.3023 23.3371 35.5936 23.4502 35.8167 23.6541L43.75 31.3541L35.7729 39.0541C35.5498 39.258 35.2585 39.3711 34.9563 39.3711C34.654 39.3711 34.3627 39.258 34.1396 39.0541L26.25 31.3541L34.1833 23.6541ZM45.2083 45.6312C45.1896 45.9174 45.0606 46.1852 44.8484 46.3783C44.6363 46.5714 44.3576 46.6747 44.0708 46.6666H25.9292C25.6424 46.6747 25.3637 46.5714 25.1516 46.3783C24.9394 46.1852 24.8104 45.9174 24.7917 45.6312V34.052L30.6979 39.7395L28.2771 42.0728C28.0055 42.3461 27.853 42.7157 27.853 43.101C27.853 43.4862 28.0055 43.8558 28.2771 44.1291C28.4126 44.2713 28.5755 44.3846 28.7559 44.4623C28.9364 44.54 29.1306 44.5804 29.3271 44.5812C29.7026 44.5797 30.063 44.4334 30.3333 44.1728L32.9146 41.6937C33.5557 42.0854 34.2924 42.2927 35.0437 42.2927C35.7951 42.2927 36.5318 42.0854 37.1729 41.6937L39.7542 44.1728C40.0245 44.4334 40.3849 44.5797 40.7604 44.5812C40.9569 44.5804 41.1511 44.54 41.3316 44.4623C41.512 44.3846 41.6749 44.2713 41.8104 44.1291C42.082 43.8558 42.2345 43.4862 42.2345 43.101C42.2345 42.7157 42.082 42.3461 41.8104 42.0728L39.375 39.7395L45.2083 34.052V45.6312Z" fill="#F0FDF4"/>
</svg>
