<svg width="72" height="72" viewBox="0 0 72 72" fill="none" xmlns="http://www.w3.org/2000/svg">
<rect x="4" y="4" width="64" height="64" rx="6" fill="#22C55E"/>
<g clip-path="url(#clip0_31_485)">
<path d="M41 45.63H29C28.2044 45.63 27.4413 45.3139 26.8787 44.7513C26.3161 44.1887 26 43.4257 26 42.63V34.63C26 34.3648 25.8946 34.1104 25.7071 33.9229C25.5196 33.7354 25.2652 33.63 25 33.63C24.7348 33.63 24.4804 33.7354 24.2929 33.9229C24.1054 34.1104 24 34.3648 24 34.63V42.63C24 43.9561 24.5268 45.2279 25.4645 46.1655C26.4021 47.1032 27.6739 47.63 29 47.63H41C41.2652 47.63 41.5196 47.5246 41.7071 47.3371C41.8946 47.1496 42 46.8952 42 46.63C42 46.3648 41.8946 46.1104 41.7071 45.9229C41.5196 45.7354 41.2652 45.63 41 45.63ZM45 27.63H31C30.2044 27.63 29.4413 27.9461 28.8787 28.5087C28.3161 29.0713 28 29.8344 28 30.63V40.63C28 41.4257 28.3161 42.1887 28.8787 42.7513C29.4413 43.3139 30.2044 43.63 31 43.63H45C45.7956 43.63 46.5587 43.3139 47.1213 42.7513C47.6839 42.1887 48 41.4257 48 40.63V30.63C48 29.8344 47.6839 29.0713 47.1213 28.5087C46.5587 27.9461 45.7956 27.63 45 27.63V27.63ZM44.59 29.63L38.71 35.51C38.617 35.6037 38.5064 35.6781 38.3846 35.7289C38.2627 35.7797 38.132 35.8058 38 35.8058C37.868 35.8058 37.7373 35.7797 37.6154 35.7289C37.4936 35.6781 37.383 35.6037 37.29 35.51L31.41 29.63H44.59ZM46 40.63C46 40.8952 45.8946 41.1496 45.7071 41.3371C45.5196 41.5246 45.2652 41.63 45 41.63H31C30.7348 41.63 30.4804 41.5246 30.2929 41.3371C30.1054 41.1496 30 40.8952 30 40.63V31L35.88 36.88C36.4425 37.4418 37.205 37.7574 38 37.7574C38.795 37.7574 39.5575 37.4418 40.12 36.88L46 31V40.63Z" fill="white"/>
</g>
<defs>
<clipPath id="clip0_31_485">
<rect width="24" height="24" fill="white" transform="translate(24 24)"/>
</clipPath>
</defs>
</svg>
