<svg width="228" height="69" viewBox="0 0 228 69" fill="none" xmlns="http://www.w3.org/2000/svg">
<g clip-path="url(#clip0_126_207)">
<circle cx="35.5" cy="34.5" r="32.5" fill="white"/>
<path d="M81.1083 41H74.0231L84.8189 9.72727H93.3395L104.12 41H97.0348L89.2014 16.8736H88.957L81.1083 41ZM80.6655 28.7077H97.4013V33.869H80.6655V28.7077ZM114.267 27.4403V41H107.762V17.5455H113.961V21.6836H114.236C114.756 20.3195 115.626 19.2404 116.847 18.4464C118.069 17.6422 119.55 17.2401 121.291 17.2401C122.92 17.2401 124.34 17.5964 125.551 18.3089C126.763 19.0215 127.704 20.0395 128.376 21.3629C129.048 22.6761 129.384 24.2438 129.384 26.0661V41H122.879V27.2266C122.889 25.7912 122.523 24.6714 121.78 23.8672C121.037 23.0528 120.013 22.6456 118.71 22.6456C117.835 22.6456 117.061 22.8339 116.389 23.2106C115.728 23.5872 115.209 24.137 114.832 24.8597C114.465 25.5723 114.277 26.4325 114.267 27.4403ZM141.199 41.4428C139.703 41.4428 138.369 41.1832 137.198 40.6641C136.028 40.1347 135.101 39.3559 134.419 38.3278C133.747 37.2894 133.411 35.9966 133.411 34.4492C133.411 33.1462 133.651 32.0518 134.129 31.1662C134.608 30.2805 135.259 29.5679 136.084 29.0284C136.908 28.4889 137.845 28.0817 138.893 27.8068C139.952 27.532 141.062 27.3385 142.222 27.2266C143.586 27.084 144.686 26.9517 145.521 26.8295C146.355 26.6972 146.961 26.5038 147.338 26.2493C147.714 25.9948 147.903 25.6181 147.903 25.1193V25.0277C147.903 24.0606 147.597 23.3124 146.986 22.783C146.386 22.2537 145.531 21.989 144.421 21.989C143.25 21.989 142.319 22.2486 141.627 22.7678C140.934 23.2768 140.476 23.9181 140.252 24.6918L134.236 24.2031C134.541 22.7779 135.142 21.5462 136.038 20.5078C136.934 19.4593 138.089 18.6551 139.504 18.0952C140.929 17.5251 142.579 17.2401 144.452 17.2401C145.755 17.2401 147.002 17.3928 148.193 17.6982C149.394 18.0036 150.458 18.4769 151.384 19.1183C152.321 19.7596 153.059 20.5842 153.598 21.592C154.138 22.5896 154.408 23.7857 154.408 25.1804V41H148.239V37.7475H148.055C147.679 38.4805 147.175 39.1269 146.544 39.6868C145.912 40.2365 145.154 40.6692 144.268 40.9847C143.383 41.2901 142.36 41.4428 141.199 41.4428ZM143.062 36.9535C144.019 36.9535 144.864 36.7652 145.597 36.3885C146.33 36.0017 146.905 35.4825 147.322 34.831C147.74 34.1795 147.948 33.4414 147.948 32.6168V30.1278C147.745 30.2602 147.465 30.3823 147.109 30.4943C146.762 30.5961 146.371 30.6928 145.933 30.7844C145.495 30.8659 145.057 30.9422 144.62 31.0135C144.182 31.0746 143.785 31.1306 143.429 31.1815C142.665 31.2934 141.998 31.4716 141.428 31.7159C140.858 31.9602 140.415 32.2911 140.1 32.7085C139.784 33.1156 139.626 33.6246 139.626 34.2354C139.626 35.1211 139.947 35.7981 140.588 36.2663C141.24 36.7244 142.064 36.9535 143.062 36.9535ZM165.959 27.4403V41H159.454V17.5455H165.654V21.6836H165.929C166.448 20.3195 167.318 19.2404 168.54 18.4464C169.761 17.6422 171.243 17.2401 172.983 17.2401C174.612 17.2401 176.032 17.5964 177.244 18.3089C178.455 19.0215 179.397 20.0395 180.069 21.3629C180.741 22.6761 181.076 24.2438 181.076 26.0661V41H174.571V27.2266C174.582 25.7912 174.215 24.6714 173.472 23.8672C172.729 23.0528 171.706 22.6456 170.403 22.6456C169.527 22.6456 168.754 22.8339 168.082 23.2106C167.42 23.5872 166.901 24.137 166.524 24.8597C166.158 25.5723 165.969 26.4325 165.959 27.4403ZM198.679 17.5455V22.4318H184.554V17.5455H198.679ZM187.761 11.9261H194.266V33.7926C194.266 34.3932 194.357 34.8615 194.541 35.1974C194.724 35.5232 194.978 35.7522 195.304 35.8846C195.64 36.0169 196.027 36.0831 196.465 36.0831C196.77 36.0831 197.075 36.0576 197.381 36.0067C197.686 35.9457 197.92 35.8999 198.083 35.8693L199.106 40.7099C198.781 40.8117 198.323 40.9287 197.732 41.0611C197.142 41.2036 196.424 41.2901 195.579 41.3207C194.011 41.3817 192.637 41.1731 191.456 40.6946C190.285 40.2161 189.374 39.473 188.723 38.4652C188.071 37.4574 187.751 36.1849 187.761 34.6477V11.9261ZM209.604 41.4428C208.108 41.4428 206.774 41.1832 205.604 40.6641C204.433 40.1347 203.507 39.3559 202.825 38.3278C202.153 37.2894 201.817 35.9966 201.817 34.4492C201.817 33.1462 202.056 32.0518 202.534 31.1662C203.013 30.2805 203.664 29.5679 204.489 29.0284C205.314 28.4889 206.25 28.0817 207.299 27.8068C208.357 27.532 209.467 27.3385 210.627 27.2266C211.992 27.084 213.091 26.9517 213.926 26.8295C214.761 26.6972 215.366 26.5038 215.743 26.2493C216.12 25.9948 216.308 25.6181 216.308 25.1193V25.0277C216.308 24.0606 216.002 23.3124 215.392 22.783C214.791 22.2537 213.936 21.989 212.826 21.989C211.656 21.989 210.724 22.2486 210.032 22.7678C209.34 23.2768 208.882 23.9181 208.658 24.6918L202.641 24.2031C202.947 22.7779 203.547 21.5462 204.443 20.5078C205.339 19.4593 206.494 18.6551 207.909 18.0952C209.335 17.5251 210.984 17.2401 212.857 17.2401C214.16 17.2401 215.407 17.3928 216.598 17.6982C217.799 18.0036 218.863 18.4769 219.789 19.1183C220.726 19.7596 221.464 20.5842 222.004 21.592C222.543 22.5896 222.813 23.7857 222.813 25.1804V41H216.644V37.7475H216.461C216.084 38.4805 215.58 39.1269 214.949 39.6868C214.318 40.2365 213.559 40.6692 212.674 40.9847C211.788 41.2901 210.765 41.4428 209.604 41.4428ZM211.467 36.9535C212.424 36.9535 213.269 36.7652 214.002 36.3885C214.735 36.0017 215.31 35.4825 215.728 34.831C216.145 34.1795 216.354 33.4414 216.354 32.6168V30.1278C216.15 30.2602 215.87 30.3823 215.514 30.4943C215.168 30.5961 214.776 30.6928 214.338 30.7844C213.9 30.8659 213.463 30.9422 213.025 31.0135C212.587 31.0746 212.19 31.1306 211.834 31.1815C211.07 31.2934 210.404 31.4716 209.833 31.7159C209.263 31.9602 208.821 32.2911 208.505 32.7085C208.189 33.1156 208.032 33.6246 208.032 34.2354C208.032 35.1211 208.352 35.7981 208.994 36.2663C209.645 36.7244 210.47 36.9535 211.467 36.9535ZM74.1477 48.3636H76.7273L80.1818 56.7955H80.3182L83.7727 48.3636H86.3523V60H84.3295V52.0057H84.2216L81.0057 59.9659H79.4943L76.2784 51.9886H76.1705V60H74.1477V48.3636ZM94.5005 60.1705C93.6255 60.1705 92.8698 59.9886 92.2334 59.625C91.6008 59.2576 91.1141 58.7386 90.7732 58.0682C90.4323 57.3939 90.2618 56.6004 90.2618 55.6875C90.2618 54.7898 90.4323 54.0019 90.7732 53.3239C91.1179 52.642 91.5989 52.1117 92.2164 51.733C92.8338 51.3504 93.5592 51.1591 94.3925 51.1591C94.9304 51.1591 95.438 51.2462 95.9152 51.4205C96.3963 51.5909 96.8205 51.8561 97.188 52.2159C97.5592 52.5758 97.8508 53.0341 98.063 53.5909C98.2751 54.1439 98.3811 54.803 98.3811 55.5682V56.1989H91.2277V54.8125H96.4095C96.4058 54.4186 96.3205 54.0682 96.1539 53.7614C95.9872 53.4508 95.7542 53.2064 95.455 53.0284C95.1595 52.8504 94.8148 52.7614 94.4209 52.7614C94.0005 52.7614 93.6311 52.8636 93.313 53.0682C92.9948 53.2689 92.7467 53.5341 92.5686 53.8636C92.3944 54.1894 92.3054 54.5473 92.3016 54.9375V56.1477C92.3016 56.6553 92.3944 57.0909 92.58 57.4545C92.7656 57.8144 93.0251 58.0909 93.3584 58.2841C93.6917 58.4735 94.0819 58.5682 94.5289 58.5682C94.8281 58.5682 95.0989 58.5265 95.3414 58.4432C95.5838 58.3561 95.794 58.2292 95.972 58.0625C96.1501 57.8958 96.2845 57.6894 96.3755 57.4432L98.2959 57.6591C98.1747 58.1667 97.9436 58.6098 97.6027 58.9886C97.2656 59.3636 96.8338 59.6553 96.3073 59.8636C95.7808 60.0682 95.1785 60.1705 94.5005 60.1705ZM104.258 54.8864V60H102.201V51.2727H104.167V52.7557H104.269C104.47 52.267 104.79 51.8788 105.23 51.5909C105.673 51.303 106.22 51.1591 106.872 51.1591C107.474 51.1591 107.999 51.2879 108.446 51.5455C108.896 51.803 109.245 52.1761 109.491 52.6648C109.741 53.1534 109.864 53.7462 109.86 54.4432V60H107.803V54.7614C107.803 54.178 107.652 53.7216 107.349 53.392C107.05 53.0625 106.635 52.8977 106.105 52.8977C105.745 52.8977 105.425 52.9773 105.144 53.1364C104.868 53.2917 104.65 53.517 104.491 53.8125C104.336 54.108 104.258 54.4659 104.258 54.8864ZM118.389 51.2727V52.8636H113.372V51.2727H118.389ZM114.611 49.1818H116.668V57.375C116.668 57.6515 116.709 57.8636 116.793 58.0114C116.88 58.1553 116.993 58.2538 117.133 58.3068C117.274 58.3598 117.429 58.3864 117.599 58.3864C117.728 58.3864 117.846 58.3769 117.952 58.358C118.061 58.339 118.145 58.322 118.202 58.3068L118.548 59.9148C118.438 59.9527 118.281 59.9943 118.077 60.0398C117.876 60.0852 117.63 60.1117 117.338 60.1193C116.823 60.1345 116.359 60.0568 115.946 59.8864C115.533 59.7121 115.205 59.4432 114.963 59.0795C114.724 58.7159 114.607 58.2614 114.611 57.7159V49.1818ZM125.902 60.1705C125.05 60.1705 124.311 59.983 123.686 59.608C123.061 59.233 122.577 58.7083 122.232 58.0341C121.891 57.3598 121.721 56.572 121.721 55.6705C121.721 54.7689 121.891 53.9792 122.232 53.3011C122.577 52.6231 123.061 52.0966 123.686 51.7216C124.311 51.3466 125.05 51.1591 125.902 51.1591C126.755 51.1591 127.493 51.3466 128.118 51.7216C128.743 52.0966 129.226 52.6231 129.567 53.3011C129.912 53.9792 130.084 54.7689 130.084 55.6705C130.084 56.572 129.912 57.3598 129.567 58.0341C129.226 58.7083 128.743 59.233 128.118 59.608C127.493 59.983 126.755 60.1705 125.902 60.1705ZM125.914 58.5227C126.376 58.5227 126.762 58.3958 127.073 58.142C127.383 57.8845 127.615 57.5398 127.766 57.108C127.921 56.6761 127.999 56.1951 127.999 55.6648C127.999 55.1307 127.921 54.6477 127.766 54.2159C127.615 53.7803 127.383 53.4337 127.073 53.1761C126.762 52.9186 126.376 52.7898 125.914 52.7898C125.44 52.7898 125.046 52.9186 124.732 53.1761C124.421 53.4337 124.188 53.7803 124.033 54.2159C123.882 54.6477 123.806 55.1307 123.806 55.6648C123.806 56.1951 123.882 56.6761 124.033 57.108C124.188 57.5398 124.421 57.8845 124.732 58.142C125.046 58.3958 125.44 58.5227 125.914 58.5227ZM133.91 60V51.2727H135.904V52.7273H135.995C136.154 52.2235 136.427 51.8352 136.813 51.5625C137.204 51.286 137.649 51.1477 138.149 51.1477C138.262 51.1477 138.389 51.1534 138.529 51.1648C138.673 51.1723 138.793 51.1856 138.887 51.2045V53.0966C138.8 53.0663 138.662 53.0398 138.472 53.017C138.287 52.9905 138.107 52.9773 137.933 52.9773C137.558 52.9773 137.221 53.0587 136.921 53.2216C136.626 53.3807 136.393 53.6023 136.222 53.8864C136.052 54.1705 135.967 54.4981 135.967 54.8693V60H133.91ZM149.231 53.5795L147.356 53.7841C147.303 53.5947 147.211 53.4167 147.078 53.25C146.949 53.0833 146.775 52.9489 146.555 52.8466C146.336 52.7443 146.067 52.6932 145.748 52.6932C145.32 52.6932 144.961 52.786 144.669 52.9716C144.381 53.1572 144.239 53.3977 144.243 53.6932C144.239 53.947 144.332 54.1534 144.521 54.3125C144.714 54.4716 145.033 54.6023 145.476 54.7045L146.964 55.0227C147.79 55.2008 148.404 55.483 148.805 55.8693C149.211 56.2557 149.415 56.7614 149.419 57.3864C149.415 57.9356 149.254 58.4205 148.936 58.8409C148.622 59.2576 148.184 59.5833 147.623 59.8182C147.063 60.053 146.419 60.1705 145.692 60.1705C144.623 60.1705 143.764 59.947 143.112 59.5C142.461 59.0492 142.072 58.4223 141.947 57.6193L143.953 57.4261C144.044 57.8201 144.237 58.1174 144.533 58.3182C144.828 58.5189 145.212 58.6193 145.686 58.6193C146.175 58.6193 146.567 58.5189 146.862 58.3182C147.161 58.1174 147.311 57.8693 147.311 57.5739C147.311 57.3239 147.214 57.1174 147.021 56.9545C146.832 56.7917 146.536 56.6667 146.135 56.5795L144.646 56.267C143.809 56.0928 143.19 55.7992 142.788 55.3864C142.387 54.9697 142.188 54.4432 142.192 53.8068C142.188 53.2689 142.334 52.803 142.629 52.4091C142.928 52.0114 143.343 51.7045 143.873 51.4886C144.408 51.2689 145.023 51.1591 145.72 51.1591C146.743 51.1591 147.548 51.3769 148.135 51.8125C148.726 52.2481 149.091 52.8371 149.231 53.5795ZM159.335 60V48.3636H163.698C164.592 48.3636 165.342 48.5303 165.948 48.8636C166.558 49.197 167.018 49.6553 167.329 50.2386C167.643 50.8182 167.801 51.4773 167.801 52.2159C167.801 52.9621 167.643 53.625 167.329 54.2045C167.015 54.7841 166.551 55.2405 165.937 55.5739C165.323 55.9034 164.568 56.0682 163.67 56.0682H160.778V54.3352H163.386C163.908 54.3352 164.336 54.2443 164.67 54.0625C165.003 53.8807 165.249 53.6307 165.408 53.3125C165.571 52.9943 165.653 52.6288 165.653 52.2159C165.653 51.803 165.571 51.4394 165.408 51.125C165.249 50.8106 165.001 50.5663 164.664 50.392C164.331 50.214 163.901 50.125 163.374 50.125H161.443V60H159.335ZM179.416 51.2727L176.308 60H174.035L170.927 51.2727H173.121L175.126 57.7557H175.217L177.229 51.2727H179.416ZM187.277 51.2727V52.8636H182.26V51.2727H187.277ZM183.499 49.1818H185.556V57.375C185.556 57.6515 185.597 57.8636 185.681 58.0114C185.768 58.1553 185.881 58.2538 186.022 58.3068C186.162 58.3598 186.317 58.3864 186.488 58.3864C186.616 58.3864 186.734 58.3769 186.84 58.358C186.95 58.339 187.033 58.322 187.09 58.3068L187.436 59.9148C187.327 59.9527 187.169 59.9943 186.965 60.0398C186.764 60.0852 186.518 60.1117 186.226 60.1193C185.711 60.1345 185.247 60.0568 184.834 59.8864C184.421 59.7121 184.094 59.4432 183.851 59.0795C183.613 58.7159 183.495 58.2614 183.499 57.7159V49.1818ZM197.217 60V48.3636H199.325V58.233H204.45V60H197.217ZM212.267 51.2727V52.8636H207.25V51.2727H212.267ZM208.489 49.1818H210.546V57.375C210.546 57.6515 210.587 57.8636 210.671 58.0114C210.758 58.1553 210.871 58.2538 211.012 58.3068C211.152 58.3598 211.307 58.3864 211.477 58.3864C211.606 58.3864 211.724 58.3769 211.83 58.358C211.94 58.339 212.023 58.322 212.08 58.3068L212.426 59.9148C212.317 59.9527 212.159 59.9943 211.955 60.0398C211.754 60.0852 211.508 60.1117 211.216 60.1193C210.701 60.1345 210.237 60.0568 209.824 59.8864C209.411 59.7121 209.084 59.4432 208.841 59.0795C208.602 58.7159 208.485 58.2614 208.489 57.7159V49.1818ZM219.212 60.1534C218.527 60.1534 217.913 59.9773 217.371 59.625C216.83 59.2727 216.402 58.7614 216.087 58.0909C215.773 57.4205 215.616 56.6061 215.616 55.6477C215.616 54.678 215.775 53.8598 216.093 53.1932C216.415 52.5227 216.849 52.017 217.394 51.6761C217.94 51.3314 218.548 51.1591 219.218 51.1591C219.729 51.1591 220.15 51.2462 220.479 51.4205C220.809 51.5909 221.07 51.7973 221.263 52.0398C221.457 52.2784 221.606 52.5038 221.712 52.7159H221.798V48.3636H223.86V60H221.837V58.625H221.712C221.606 58.8371 221.453 59.0625 221.252 59.3011C221.051 59.536 220.786 59.7367 220.457 59.9034C220.127 60.0701 219.712 60.1534 219.212 60.1534ZM219.786 58.4659C220.222 58.4659 220.593 58.3485 220.9 58.1136C221.207 57.875 221.44 57.5436 221.599 57.1193C221.758 56.6951 221.837 56.2008 221.837 55.6364C221.837 55.072 221.758 54.5814 221.599 54.1648C221.443 53.7481 221.212 53.4242 220.906 53.1932C220.602 52.9621 220.229 52.8466 219.786 52.8466C219.328 52.8466 218.945 52.9659 218.638 53.2045C218.332 53.4432 218.101 53.7727 217.945 54.1932C217.79 54.6136 217.712 55.0947 217.712 55.6364C217.712 56.1818 217.79 56.6686 217.945 57.0966C218.104 57.5208 218.337 57.8561 218.644 58.1023C218.955 58.3447 219.335 58.4659 219.786 58.4659Z" fill="white"/>
<path d="M17.072 22.984H17.616L20.144 31.752L16.464 45H10.064L17.072 22.984ZM24.272 41.096H18.928L20.272 36.168H22.832L19.056 22.984H24.912L31.92 45H25.392L24.272 41.096ZM34.0488 23.944V22.984H39.9368L49.1528 42.568L48.0968 45H43.9368L34.0488 23.944ZM52.1288 35.752H52.0008L49.8568 40.936L47.1048 35.048L52.1288 22.984H58.2088V45H52.1288V35.752ZM34.0488 27.112L39.9368 39.656V45H34.0488V27.112Z" fill="#22C55E"/>
</g>
<defs>
<clipPath id="clip0_126_207">
<rect width="228" height="69" fill="white"/>
</clipPath>
</defs>
</svg>
