<svg width="228" height="69" viewBox="0 0 228 69" fill="none" xmlns="http://www.w3.org/2000/svg">
<g clip-path="url(#clip0_97_266)">
<circle cx="35.5" cy="34.5" r="32.5" fill="white"/>
<path d="M81.1083 41H74.0231L84.8189 9.72727H93.3395L104.12 41H97.0348L89.2014 16.8736H88.957L81.1083 41ZM80.6655 28.7077H97.4013V33.869H80.6655V28.7077ZM114.267 27.4403V41H107.762V17.5455H113.961V21.6836H114.236C114.756 20.3195 115.626 19.2404 116.847 18.4464C118.069 17.6422 119.55 17.2401 121.291 17.2401C122.92 17.2401 124.34 17.5964 125.551 18.3089C126.763 19.0215 127.704 20.0395 128.376 21.3629C129.048 22.6761 129.384 24.2438 129.384 26.0661V41H122.879V27.2266C122.889 25.7912 122.523 24.6714 121.78 23.8672C121.037 23.0528 120.013 22.6456 118.71 22.6456C117.835 22.6456 117.061 22.8339 116.389 23.2106C115.728 23.5872 115.209 24.137 114.832 24.8597C114.465 25.5723 114.277 26.4325 114.267 27.4403ZM141.199 41.4428C139.703 41.4428 138.369 41.1832 137.198 40.6641C136.028 40.1347 135.101 39.3559 134.419 38.3278C133.747 37.2894 133.411 35.9966 133.411 34.4492C133.411 33.1462 133.651 32.0518 134.129 31.1662C134.608 30.2805 135.259 29.5679 136.084 29.0284C136.908 28.4889 137.845 28.0817 138.893 27.8068C139.952 27.532 141.062 27.3385 142.222 27.2266C143.586 27.084 144.686 26.9517 145.521 26.8295C146.355 26.6972 146.961 26.5038 147.338 26.2493C147.714 25.9948 147.903 25.6181 147.903 25.1193V25.0277C147.903 24.0606 147.597 23.3124 146.986 22.783C146.386 22.2537 145.531 21.989 144.421 21.989C143.25 21.989 142.319 22.2486 141.627 22.7678C140.934 23.2768 140.476 23.9181 140.252 24.6918L134.236 24.2031C134.541 22.7779 135.142 21.5462 136.038 20.5078C136.934 19.4593 138.089 18.6551 139.504 18.0952C140.929 17.5251 142.579 17.2401 144.452 17.2401C145.755 17.2401 147.002 17.3928 148.193 17.6982C149.394 18.0036 150.458 18.4769 151.384 19.1183C152.321 19.7596 153.059 20.5842 153.598 21.592C154.138 22.5896 154.408 23.7857 154.408 25.1804V41H148.239V37.7475H148.055C147.679 38.4805 147.175 39.1269 146.544 39.6868C145.912 40.2365 145.154 40.6692 144.268 40.9847C143.383 41.2901 142.36 41.4428 141.199 41.4428ZM143.062 36.9535C144.019 36.9535 144.864 36.7652 145.597 36.3885C146.33 36.0017 146.905 35.4825 147.322 34.831C147.74 34.1795 147.948 33.4414 147.948 32.6168V30.1278C147.745 30.2602 147.465 30.3823 147.109 30.4943C146.762 30.5961 146.371 30.6928 145.933 30.7844C145.495 30.8659 145.057 30.9422 144.62 31.0135C144.182 31.0746 143.785 31.1306 143.429 31.1815C142.665 31.2934 141.998 31.4716 141.428 31.7159C140.858 31.9602 140.415 32.2911 140.1 32.7085C139.784 33.1156 139.626 33.6246 139.626 34.2354C139.626 35.1211 139.947 35.7981 140.588 36.2663C141.24 36.7244 142.064 36.9535 143.062 36.9535ZM165.959 27.4403V41H159.454V17.5455H165.654V21.6836H165.929C166.448 20.3195 167.318 19.2404 168.54 18.4464C169.761 17.6422 171.243 17.2401 172.983 17.2401C174.612 17.2401 176.032 17.5964 177.244 18.3089C178.455 19.0215 179.397 20.0395 180.069 21.3629C180.741 22.6761 181.076 24.2438 181.076 26.0661V41H174.571V27.2266C174.582 25.7912 174.215 24.6714 173.472 23.8672C172.729 23.0528 171.706 22.6456 170.403 22.6456C169.527 22.6456 168.754 22.8339 168.082 23.2106C167.42 23.5872 166.901 24.137 166.524 24.8597C166.158 25.5723 165.969 26.4325 165.959 27.4403ZM198.679 17.5455V22.4318H184.554V17.5455H198.679ZM187.761 11.9261H194.266V33.7926C194.266 34.3932 194.357 34.8615 194.541 35.1974C194.724 35.5232 194.978 35.7522 195.304 35.8846C195.64 36.0169 196.027 36.0831 196.465 36.0831C196.77 36.0831 197.075 36.0576 197.381 36.0067C197.686 35.9457 197.92 35.8999 198.083 35.8693L199.106 40.7099C198.781 40.8117 198.323 40.9287 197.732 41.0611C197.142 41.2036 196.424 41.2901 195.579 41.3207C194.011 41.3817 192.637 41.1731 191.456 40.6946C190.285 40.2161 189.374 39.473 188.723 38.4652C188.071 37.4574 187.751 36.1849 187.761 34.6477V11.9261ZM209.604 41.4428C208.108 41.4428 206.774 41.1832 205.604 40.6641C204.433 40.1347 203.507 39.3559 202.825 38.3278C202.153 37.2894 201.817 35.9966 201.817 34.4492C201.817 33.1462 202.056 32.0518 202.534 31.1662C203.013 30.2805 203.664 29.5679 204.489 29.0284C205.314 28.4889 206.25 28.0817 207.299 27.8068C208.357 27.532 209.467 27.3385 210.627 27.2266C211.992 27.084 213.091 26.9517 213.926 26.8295C214.761 26.6972 215.366 26.5038 215.743 26.2493C216.12 25.9948 216.308 25.6181 216.308 25.1193V25.0277C216.308 24.0606 216.002 23.3124 215.392 22.783C214.791 22.2537 213.936 21.989 212.826 21.989C211.656 21.989 210.724 22.2486 210.032 22.7678C209.34 23.2768 208.882 23.9181 208.658 24.6918L202.641 24.2031C202.947 22.7779 203.547 21.5462 204.443 20.5078C205.339 19.4593 206.494 18.6551 207.909 18.0952C209.335 17.5251 210.984 17.2401 212.857 17.2401C214.16 17.2401 215.407 17.3928 216.598 17.6982C217.799 18.0036 218.863 18.4769 219.789 19.1183C220.726 19.7596 221.464 20.5842 222.004 21.592C222.543 22.5896 222.813 23.7857 222.813 25.1804V41H216.644V37.7475H216.461C216.084 38.4805 215.58 39.1269 214.949 39.6868C214.318 40.2365 213.559 40.6692 212.674 40.9847C211.788 41.2901 210.765 41.4428 209.604 41.4428ZM211.467 36.9535C212.424 36.9535 213.269 36.7652 214.002 36.3885C214.735 36.0017 215.31 35.4825 215.728 34.831C216.145 34.1795 216.354 33.4414 216.354 32.6168V30.1278C216.15 30.2602 215.87 30.3823 215.514 30.4943C215.168 30.5961 214.776 30.6928 214.338 30.7844C213.9 30.8659 213.463 30.9422 213.025 31.0135C212.587 31.0746 212.19 31.1306 211.834 31.1815C211.07 31.2934 210.404 31.4716 209.833 31.7159C209.263 31.9602 208.821 32.2911 208.505 32.7085C208.189 33.1156 208.032 33.6246 208.032 34.2354C208.032 35.1211 208.352 35.7981 208.994 36.2663C209.645 36.7244 210.47 36.9535 211.467 36.9535ZM74.1477 48.3636H76.7273L80.1818 56.7955H80.3182L83.7727 48.3636H86.3523V60H84.3295V52.0057H84.2216L81.0057 59.9659H79.4943L76.2784 51.9886H76.1705V60H74.1477V48.3636ZM91.0682 60.1761C90.5152 60.1761 90.017 60.0777 89.5739 59.8807C89.1345 59.6799 88.786 59.3845 88.5284 58.9943C88.2746 58.6042 88.1477 58.1231 88.1477 57.5511C88.1477 57.0587 88.2386 56.6515 88.4205 56.3295C88.6023 56.0076 88.8504 55.75 89.1648 55.5568C89.4792 55.3636 89.8333 55.2178 90.2273 55.1193C90.625 55.017 91.036 54.9432 91.4602 54.8977C91.9716 54.8447 92.3864 54.7973 92.7045 54.7557C93.0227 54.7102 93.2538 54.642 93.3977 54.5511C93.5455 54.4564 93.6193 54.3106 93.6193 54.1136V54.0795C93.6193 53.6515 93.4924 53.3201 93.2386 53.0852C92.9848 52.8504 92.6193 52.733 92.142 52.733C91.6383 52.733 91.2386 52.8428 90.9432 53.0625C90.6515 53.2822 90.4545 53.5417 90.3523 53.8409L88.4318 53.5682C88.5833 53.0379 88.8333 52.5947 89.1818 52.2386C89.5303 51.8788 89.9564 51.6098 90.4602 51.4318C90.964 51.25 91.5208 51.1591 92.1307 51.1591C92.5511 51.1591 92.9697 51.2083 93.3864 51.3068C93.803 51.4053 94.1837 51.5682 94.5284 51.7955C94.8731 52.0189 95.1496 52.3239 95.358 52.7102C95.5701 53.0966 95.6761 53.5795 95.6761 54.1591V60H93.6989V58.8011H93.6307C93.5057 59.0436 93.3295 59.2708 93.1023 59.483C92.8788 59.6913 92.5966 59.8598 92.2557 59.9886C91.9186 60.1136 91.5227 60.1761 91.0682 60.1761ZM91.6023 58.6648C92.0152 58.6648 92.3731 58.5833 92.6761 58.4205C92.9792 58.2538 93.2121 58.0341 93.375 57.7614C93.5417 57.4886 93.625 57.1913 93.625 56.8693V55.8409C93.5606 55.8939 93.4508 55.9432 93.2955 55.9886C93.1439 56.0341 92.9735 56.0739 92.7841 56.108C92.5947 56.142 92.4072 56.1723 92.2216 56.1989C92.036 56.2254 91.875 56.2481 91.7386 56.267C91.4318 56.3087 91.1572 56.3769 90.9148 56.4716C90.6723 56.5663 90.4811 56.6989 90.3409 56.8693C90.2008 57.036 90.1307 57.2519 90.1307 57.517C90.1307 57.8958 90.2689 58.1818 90.5455 58.375C90.822 58.5682 91.1742 58.6648 91.6023 58.6648ZM99.8011 54.8864V60H97.7443V51.2727H99.7102V52.7557H99.8125C100.013 52.267 100.333 51.8788 100.773 51.5909C101.216 51.303 101.763 51.1591 102.415 51.1591C103.017 51.1591 103.542 51.2879 103.989 51.5455C104.439 51.803 104.788 52.1761 105.034 52.6648C105.284 53.1534 105.407 53.7462 105.403 54.4432V60H103.347V54.7614C103.347 54.178 103.195 53.7216 102.892 53.392C102.593 53.0625 102.178 52.8977 101.648 52.8977C101.288 52.8977 100.968 52.9773 100.688 53.1364C100.411 53.2917 100.193 53.517 100.034 53.8125C99.8788 54.108 99.8011 54.4659 99.8011 54.8864ZM107.494 63.2727V51.2727H109.517V52.7159H109.636C109.742 52.5038 109.892 52.2784 110.085 52.0398C110.278 51.7973 110.54 51.5909 110.869 51.4205C111.199 51.2462 111.619 51.1591 112.131 51.1591C112.805 51.1591 113.413 51.3314 113.955 51.6761C114.5 52.017 114.932 52.5227 115.25 53.1932C115.572 53.8598 115.733 54.678 115.733 55.6477C115.733 56.6061 115.576 57.4205 115.261 58.0909C114.947 58.7614 114.519 59.2727 113.977 59.625C113.436 59.9773 112.822 60.1534 112.136 60.1534C111.636 60.1534 111.222 60.0701 110.892 59.9034C110.563 59.7367 110.297 59.536 110.097 59.3011C109.9 59.0625 109.746 58.8371 109.636 58.625H109.551V63.2727H107.494ZM109.511 55.6364C109.511 56.2008 109.591 56.6951 109.75 57.1193C109.913 57.5436 110.146 57.875 110.449 58.1136C110.756 58.3485 111.127 58.4659 111.562 58.4659C112.017 58.4659 112.398 58.3447 112.705 58.1023C113.011 57.8561 113.242 57.5208 113.398 57.0966C113.557 56.6686 113.636 56.1818 113.636 55.6364C113.636 55.0947 113.559 54.6136 113.403 54.1932C113.248 53.7727 113.017 53.4432 112.71 53.2045C112.403 52.9659 112.021 52.8466 111.562 52.8466C111.123 52.8466 110.75 52.9621 110.443 53.1932C110.136 53.4242 109.903 53.7481 109.744 54.1648C109.589 54.5814 109.511 55.072 109.511 55.6364ZM121.301 60.1705C120.449 60.1705 119.71 59.983 119.085 59.608C118.46 59.233 117.975 58.7083 117.631 58.0341C117.29 57.3598 117.119 56.572 117.119 55.6705C117.119 54.7689 117.29 53.9792 117.631 53.3011C117.975 52.6231 118.46 52.0966 119.085 51.7216C119.71 51.3466 120.449 51.1591 121.301 51.1591C122.153 51.1591 122.892 51.3466 123.517 51.7216C124.142 52.0966 124.625 52.6231 124.966 53.3011C125.311 53.9792 125.483 54.7689 125.483 55.6705C125.483 56.572 125.311 57.3598 124.966 58.0341C124.625 58.7083 124.142 59.233 123.517 59.608C122.892 59.983 122.153 60.1705 121.301 60.1705ZM121.312 58.5227C121.775 58.5227 122.161 58.3958 122.472 58.142C122.782 57.8845 123.013 57.5398 123.165 57.108C123.32 56.6761 123.398 56.1951 123.398 55.6648C123.398 55.1307 123.32 54.6477 123.165 54.2159C123.013 53.7803 122.782 53.4337 122.472 53.1761C122.161 52.9186 121.775 52.7898 121.312 52.7898C120.839 52.7898 120.445 52.9186 120.131 53.1761C119.82 53.4337 119.587 53.7803 119.432 54.2159C119.28 54.6477 119.205 55.1307 119.205 55.6648C119.205 56.1951 119.28 56.6761 119.432 57.108C119.587 57.5398 119.82 57.8845 120.131 58.142C120.445 58.3958 120.839 58.5227 121.312 58.5227ZM128.78 60L126.314 51.2727H128.411L129.945 57.4091H130.024L131.592 51.2727H133.666L135.234 57.375H135.32L136.831 51.2727H138.933L136.462 60H134.32L132.683 54.1023H132.564L130.928 60H128.78ZM143.983 60.1705C143.108 60.1705 142.352 59.9886 141.716 59.625C141.083 59.2576 140.597 58.7386 140.256 58.0682C139.915 57.3939 139.744 56.6004 139.744 55.6875C139.744 54.7898 139.915 54.0019 140.256 53.3239C140.6 52.642 141.081 52.1117 141.699 51.733C142.316 51.3504 143.042 51.1591 143.875 51.1591C144.413 51.1591 144.92 51.2462 145.398 51.4205C145.879 51.5909 146.303 51.8561 146.67 52.2159C147.042 52.5758 147.333 53.0341 147.545 53.5909C147.758 54.1439 147.864 54.803 147.864 55.5682V56.1989H140.71V54.8125H145.892C145.888 54.4186 145.803 54.0682 145.636 53.7614C145.47 53.4508 145.237 53.2064 144.938 53.0284C144.642 52.8504 144.297 52.7614 143.903 52.7614C143.483 52.7614 143.114 52.8636 142.795 53.0682C142.477 53.2689 142.229 53.5341 142.051 53.8636C141.877 54.1894 141.788 54.5473 141.784 54.9375V56.1477C141.784 56.6553 141.877 57.0909 142.062 57.4545C142.248 57.8144 142.508 58.0909 142.841 58.2841C143.174 58.4735 143.564 58.5682 144.011 58.5682C144.311 58.5682 144.581 58.5265 144.824 58.4432C145.066 58.3561 145.277 58.2292 145.455 58.0625C145.633 57.8958 145.767 57.6894 145.858 57.4432L147.778 57.6591C147.657 58.1667 147.426 58.6098 147.085 58.9886C146.748 59.3636 146.316 59.6553 145.79 59.8636C145.263 60.0682 144.661 60.1705 143.983 60.1705ZM149.604 60V51.2727H151.598V52.7273H151.689C151.848 52.2235 152.121 51.8352 152.507 51.5625C152.897 51.286 153.342 51.1477 153.842 51.1477C153.956 51.1477 154.083 51.1534 154.223 51.1648C154.367 51.1723 154.486 51.1856 154.581 51.2045V53.0966C154.494 53.0663 154.356 53.0398 154.166 53.017C153.981 52.9905 153.801 52.9773 153.626 52.9773C153.251 52.9773 152.914 53.0587 152.615 53.2216C152.32 53.3807 152.087 53.6023 151.916 53.8864C151.746 54.1705 151.661 54.4981 151.661 54.8693V60H149.604ZM166.331 51.5625C166.278 51.0663 166.054 50.6799 165.661 50.4034C165.27 50.1269 164.763 49.9886 164.138 49.9886C163.698 49.9886 163.321 50.0549 163.007 50.1875C162.693 50.3201 162.452 50.5 162.286 50.7273C162.119 50.9545 162.034 51.214 162.03 51.5057C162.03 51.7481 162.085 51.9583 162.195 52.1364C162.308 52.3144 162.462 52.4659 162.655 52.5909C162.848 52.7121 163.062 52.8144 163.297 52.8977C163.532 52.9811 163.768 53.0511 164.007 53.108L165.098 53.3807C165.537 53.483 165.96 53.6212 166.365 53.7955C166.774 53.9697 167.14 54.1894 167.462 54.4545C167.787 54.7197 168.045 55.0398 168.234 55.4148C168.424 55.7898 168.518 56.2292 168.518 56.733C168.518 57.4148 168.344 58.0152 167.996 58.5341C167.647 59.0492 167.143 59.4527 166.484 59.7443C165.829 60.0322 165.036 60.1761 164.104 60.1761C163.198 60.1761 162.412 60.036 161.746 59.7557C161.083 59.4754 160.564 59.0663 160.189 58.5284C159.818 57.9905 159.617 57.3352 159.587 56.5625H161.661C161.691 56.9678 161.816 57.3049 162.036 57.5739C162.255 57.8428 162.541 58.0436 162.893 58.1761C163.25 58.3087 163.647 58.375 164.087 58.375C164.545 58.375 164.946 58.3068 165.291 58.1705C165.64 58.0303 165.912 57.8371 166.109 57.5909C166.306 57.3409 166.407 57.0492 166.411 56.7159C166.407 56.4129 166.318 56.1629 166.143 55.9659C165.969 55.7652 165.725 55.5985 165.411 55.4659C165.1 55.3295 164.736 55.2083 164.32 55.1023L162.996 54.7614C162.037 54.5152 161.28 54.142 160.723 53.642C160.17 53.1383 159.893 52.4697 159.893 51.6364C159.893 50.9508 160.079 50.3504 160.45 49.8352C160.825 49.3201 161.335 48.9205 161.979 48.6364C162.623 48.3485 163.352 48.2045 164.166 48.2045C164.992 48.2045 165.715 48.3485 166.337 48.6364C166.962 48.9205 167.452 49.3163 167.808 49.8239C168.164 50.3277 168.348 50.9072 168.359 51.5625H166.331ZM174.17 60.1705C173.295 60.1705 172.54 59.9886 171.903 59.625C171.271 59.2576 170.784 58.7386 170.443 58.0682C170.102 57.3939 169.932 56.6004 169.932 55.6875C169.932 54.7898 170.102 54.0019 170.443 53.3239C170.788 52.642 171.269 52.1117 171.886 51.733C172.504 51.3504 173.229 51.1591 174.062 51.1591C174.6 51.1591 175.108 51.2462 175.585 51.4205C176.066 51.5909 176.491 51.8561 176.858 52.2159C177.229 52.5758 177.521 53.0341 177.733 53.5909C177.945 54.1439 178.051 54.803 178.051 55.5682V56.1989H170.898V54.8125H176.08C176.076 54.4186 175.991 54.0682 175.824 53.7614C175.657 53.4508 175.424 53.2064 175.125 53.0284C174.83 52.8504 174.485 52.7614 174.091 52.7614C173.67 52.7614 173.301 52.8636 172.983 53.0682C172.665 53.2689 172.417 53.5341 172.239 53.8636C172.064 54.1894 171.975 54.5473 171.972 54.9375V56.1477C171.972 56.6553 172.064 57.0909 172.25 57.4545C172.436 57.8144 172.695 58.0909 173.028 58.2841C173.362 58.4735 173.752 58.5682 174.199 58.5682C174.498 58.5682 174.769 58.5265 175.011 58.4432C175.254 58.3561 175.464 58.2292 175.642 58.0625C175.82 57.8958 175.955 57.6894 176.045 57.4432L177.966 57.6591C177.845 58.1667 177.614 58.6098 177.273 58.9886C176.936 59.3636 176.504 59.6553 175.977 59.8636C175.451 60.0682 174.848 60.1705 174.17 60.1705ZM179.791 60V51.2727H181.786V52.7273H181.876C182.036 52.2235 182.308 51.8352 182.695 51.5625C183.085 51.286 183.53 51.1477 184.03 51.1477C184.143 51.1477 184.27 51.1534 184.411 51.1648C184.554 51.1723 184.674 51.1856 184.768 51.2045V53.0966C184.681 53.0663 184.543 53.0398 184.354 53.017C184.168 52.9905 183.988 52.9773 183.814 52.9773C183.439 52.9773 183.102 53.0587 182.803 53.2216C182.507 53.3807 182.274 53.6023 182.104 53.8864C181.933 54.1705 181.848 54.4981 181.848 54.8693V60H179.791ZM194.196 51.2727L191.088 60H188.815L185.707 51.2727H187.901L189.906 57.7557H189.997L192.009 51.2727H194.196ZM195.619 60V51.2727H197.676V60H195.619ZM196.653 50.0341C196.328 50.0341 196.047 49.9261 195.812 49.7102C195.578 49.4905 195.46 49.2273 195.46 48.9205C195.46 48.6098 195.578 48.3466 195.812 48.1307C196.047 47.911 196.328 47.8011 196.653 47.8011C196.983 47.8011 197.263 47.911 197.494 48.1307C197.729 48.3466 197.847 48.6098 197.847 48.9205C197.847 49.2273 197.729 49.4905 197.494 49.7102C197.263 49.9261 196.983 50.0341 196.653 50.0341ZM203.598 60.1705C202.727 60.1705 201.979 59.9792 201.354 59.5966C200.732 59.214 200.253 58.6856 199.916 58.0114C199.583 57.3333 199.416 56.553 199.416 55.6705C199.416 54.7841 199.587 54.0019 199.928 53.3239C200.268 52.642 200.75 52.1117 201.371 51.733C201.996 51.3504 202.734 51.1591 203.587 51.1591C204.295 51.1591 204.922 51.2898 205.467 51.5511C206.017 51.8087 206.454 52.1742 206.78 52.6477C207.106 53.1174 207.291 53.6667 207.337 54.2955H205.371C205.291 53.875 205.102 53.5246 204.803 53.2443C204.507 52.9602 204.111 52.8182 203.615 52.8182C203.195 52.8182 202.825 52.9318 202.507 53.1591C202.189 53.3826 201.941 53.7045 201.763 54.125C201.589 54.5455 201.501 55.0492 201.501 55.6364C201.501 56.2311 201.589 56.7424 201.763 57.1705C201.937 57.5947 202.181 57.9223 202.496 58.1534C202.814 58.3807 203.187 58.4943 203.615 58.4943C203.918 58.4943 204.189 58.4375 204.428 58.3239C204.67 58.2064 204.873 58.0379 205.036 57.8182C205.198 57.5985 205.31 57.3314 205.371 57.017H207.337C207.287 57.6345 207.106 58.1818 206.791 58.6591C206.477 59.1326 206.049 59.5038 205.507 59.7727C204.965 60.0379 204.329 60.1705 203.598 60.1705ZM212.889 60.1705C212.014 60.1705 211.259 59.9886 210.622 59.625C209.99 59.2576 209.503 58.7386 209.162 58.0682C208.821 57.3939 208.651 56.6004 208.651 55.6875C208.651 54.7898 208.821 54.0019 209.162 53.3239C209.507 52.642 209.988 52.1117 210.605 51.733C211.223 51.3504 211.948 51.1591 212.781 51.1591C213.319 51.1591 213.827 51.2462 214.304 51.4205C214.785 51.5909 215.209 51.8561 215.577 52.2159C215.948 52.5758 216.24 53.0341 216.452 53.5909C216.664 54.1439 216.77 54.803 216.77 55.5682V56.1989H209.616V54.8125H214.798C214.795 54.4186 214.709 54.0682 214.543 53.7614C214.376 53.4508 214.143 53.2064 213.844 53.0284C213.548 52.8504 213.204 52.7614 212.81 52.7614C212.389 52.7614 212.02 52.8636 211.702 53.0682C211.384 53.2689 211.135 53.5341 210.957 53.8636C210.783 54.1894 210.694 54.5473 210.69 54.9375V56.1477C210.69 56.6553 210.783 57.0909 210.969 57.4545C211.154 57.8144 211.414 58.0909 211.747 58.2841C212.08 58.4735 212.471 58.5682 212.918 58.5682C213.217 58.5682 213.488 58.5265 213.73 58.4432C213.973 58.3561 214.183 58.2292 214.361 58.0625C214.539 57.8958 214.673 57.6894 214.764 57.4432L216.685 57.6591C216.563 58.1667 216.332 58.6098 215.991 58.9886C215.654 59.3636 215.223 59.6553 214.696 59.8636C214.17 60.0682 213.567 60.1705 212.889 60.1705ZM225.408 53.5795L223.533 53.7841C223.48 53.5947 223.387 53.4167 223.254 53.25C223.125 53.0833 222.951 52.9489 222.732 52.8466C222.512 52.7443 222.243 52.6932 221.925 52.6932C221.497 52.6932 221.137 52.786 220.845 52.9716C220.557 53.1572 220.415 53.3977 220.419 53.6932C220.415 53.947 220.508 54.1534 220.697 54.3125C220.891 54.4716 221.209 54.6023 221.652 54.7045L223.141 55.0227C223.966 55.2008 224.58 55.483 224.982 55.8693C225.387 56.2557 225.591 56.7614 225.595 57.3864C225.591 57.9356 225.43 58.4205 225.112 58.8409C224.798 59.2576 224.36 59.5833 223.8 59.8182C223.239 60.053 222.595 60.1705 221.868 60.1705C220.8 60.1705 219.94 59.947 219.288 59.5C218.637 59.0492 218.249 58.4223 218.124 57.6193L220.129 57.4261C220.22 57.8201 220.413 58.1174 220.709 58.3182C221.004 58.5189 221.389 58.6193 221.862 58.6193C222.351 58.6193 222.743 58.5189 223.038 58.3182C223.338 58.1174 223.487 57.8693 223.487 57.5739C223.487 57.3239 223.391 57.1174 223.197 56.9545C223.008 56.7917 222.713 56.6667 222.311 56.5795L220.822 56.267C219.985 56.0928 219.366 55.7992 218.964 55.3864C218.563 54.9697 218.364 54.4432 218.368 53.8068C218.364 53.2689 218.51 52.803 218.805 52.4091C219.105 52.0114 219.519 51.7045 220.05 51.4886C220.584 51.2689 221.199 51.1591 221.896 51.1591C222.919 51.1591 223.724 51.3769 224.311 51.8125C224.902 52.2481 225.268 52.8371 225.408 53.5795Z" fill="white"/>
<path d="M17.072 22.984H17.616L20.144 31.752L16.464 45H10.064L17.072 22.984ZM24.272 41.096H18.928L20.272 36.168H22.832L19.056 22.984H24.912L31.92 45H25.392L24.272 41.096ZM34.0488 23.944V22.984H39.9368L49.1528 42.568L48.0968 45H43.9368L34.0488 23.944ZM52.1288 35.752H52.0008L49.8568 40.936L47.1048 35.048L52.1288 22.984H58.2088V45H52.1288V35.752ZM34.0488 27.112L39.9368 39.656V45H34.0488V27.112Z" fill="#22C55E"/>
</g>
<defs>
<clipPath id="clip0_97_266">
<rect width="228" height="69" fill="white"/>
</clipPath>
</defs>
</svg>
