<svg width="70" height="70" viewBox="0 0 70 70" fill="none" xmlns="http://www.w3.org/2000/svg">
<circle cx="35" cy="35" r="35" fill="#22C55E"/>
<path d="M43.7503 24.0331C41.4297 21.7124 38.2822 20.4087 35.0003 20.4087C31.7185 20.4087 28.571 21.7124 26.2503 24.0331C23.9297 26.3537 22.626 29.5012 22.626 32.7831C22.626 36.0649 23.9297 39.2124 26.2503 41.5331L33.9358 49.2331C34.0713 49.3697 34.2326 49.4782 34.4103 49.5523C34.588 49.6263 34.7787 49.6644 34.9712 49.6644C35.1637 49.6644 35.3543 49.6263 35.532 49.5523C35.7097 49.4782 35.871 49.3697 36.0066 49.2331L43.7503 41.4601C46.0613 39.1492 47.3596 36.0148 47.3596 32.7466C47.3596 29.4784 46.0613 26.344 43.7503 24.0331ZM41.6649 39.3747L35.0003 46.0685L28.3358 39.3747C27.0191 38.0569 26.1227 36.3782 25.7599 34.551C25.3971 32.7238 25.5842 30.83 26.2975 29.1091C27.0107 27.3881 28.2182 25.9173 29.7673 24.8825C31.3164 23.8477 33.1374 23.2954 35.0003 23.2954C36.8632 23.2954 38.6843 23.8477 40.2334 24.8825C41.7824 25.9173 42.9899 27.3881 43.7032 29.1091C44.4165 30.83 44.6036 32.7238 44.2408 34.551C43.878 36.3782 42.9816 38.0569 41.6649 39.3747ZM30.6253 28.306C29.4481 29.4869 28.787 31.0864 28.787 32.7539C28.787 34.4214 29.4481 36.0209 30.6253 37.2018C31.5 38.078 32.6139 38.6763 33.8273 38.9218C35.0408 39.1672 36.2997 39.0489 37.4461 38.5816C38.5925 38.1143 39.5754 37.3189 40.2715 36.2951C40.9675 35.2713 41.3457 34.0647 41.3587 32.8268C41.3652 32.0002 41.206 31.1807 40.8904 30.4167C40.5748 29.6528 40.1092 28.9598 39.5212 28.3789C38.9432 27.7877 38.254 27.3166 37.4933 26.9927C36.7325 26.6688 35.9152 26.4986 35.0884 26.4919C34.2616 26.4851 33.4417 26.6419 32.6757 26.9532C31.9098 27.2646 31.2129 27.7243 30.6253 28.306ZM37.4649 35.131C36.9123 35.6921 36.1819 36.0438 35.3987 36.1259C34.6154 36.2081 33.8279 36.0157 33.1709 35.5815C32.5138 35.1473 32.028 34.4984 31.7964 33.7457C31.5648 32.993 31.6019 32.1832 31.9013 31.4547C32.2007 30.7263 32.7439 30.1245 33.4379 29.7523C34.1319 29.38 34.9336 29.2603 35.7061 29.4138C36.4785 29.5672 37.1737 29.9842 37.6728 30.5934C38.1718 31.2027 38.4437 31.9663 38.442 32.7539C38.4208 33.6541 38.0431 34.509 37.392 35.131H37.4649Z" fill="#F0FDF4"/>
</svg>
