<svg width="70" height="70" viewBox="0 0 70 70" fill="none" xmlns="http://www.w3.org/2000/svg">
<circle cx="35" cy="35" r="35" fill="#22C55E"/>
<path d="M45.8062 36.4582C45.4854 36.4582 45.1499 36.3561 44.8291 36.2832C44.1799 36.138 43.5416 35.948 42.9187 35.7144C42.2422 35.4683 41.4985 35.4811 40.8308 35.7503C40.1631 36.0195 39.6186 36.5262 39.302 37.1728L38.9812 37.8436C37.5649 37.0403 36.2565 36.0603 35.0874 34.9269C33.9541 33.7579 32.974 32.4495 32.1708 31.0332L32.8416 30.7269C33.4882 30.4103 33.9948 29.8658 34.2641 29.1981C34.5333 28.5305 34.5461 27.7868 34.2999 27.1103C34.0683 26.4818 33.8784 25.8387 33.7312 25.1853C33.6583 24.8644 33.5999 24.529 33.5562 24.2082C33.3791 23.1809 32.8411 22.2507 32.039 21.585C31.2369 20.9192 30.2235 20.5618 29.1812 20.5769H24.7916C24.1751 20.5761 23.5654 20.7056 23.0024 20.9569C22.4394 21.2083 21.936 21.5757 21.5249 22.0353C21.1054 22.5072 20.793 23.0645 20.6093 23.6686C20.4255 24.2728 20.3747 24.9096 20.4604 25.5353C21.2531 31.605 24.0263 37.2437 28.3499 41.5769C32.6832 45.9006 38.3218 48.6738 44.3916 49.4665C44.5809 49.481 44.7711 49.481 44.9604 49.4665C46.0358 49.4681 47.0741 49.0735 47.877 48.3582C48.3366 47.9472 48.704 47.4437 48.9553 46.8807C49.2067 46.3177 49.3362 45.708 49.3354 45.0915V40.7165C49.3275 39.7088 48.972 38.7348 48.329 37.9589C47.686 37.1831 46.7949 36.653 45.8062 36.4582ZM46.5208 45.2082C46.5203 45.4117 46.4772 45.6128 46.3943 45.7987C46.3115 45.9845 46.1906 46.151 46.0395 46.2873C45.8797 46.433 45.6895 46.5412 45.4827 46.6043C45.2758 46.6673 45.0576 46.6836 44.8437 46.6519C39.4016 45.9412 34.3441 43.4611 30.4499 39.5936C26.5525 35.6961 24.0508 30.621 23.3333 25.1561C23.3016 24.9422 23.3179 24.7239 23.3809 24.5171C23.444 24.3103 23.5522 24.1201 23.6979 23.9603C23.8359 23.8073 24.0047 23.6854 24.1932 23.6025C24.3817 23.5195 24.5857 23.4774 24.7916 23.479H29.1666C29.5037 23.4708 29.8333 23.5796 30.0992 23.787C30.3651 23.9944 30.5509 24.2875 30.6249 24.6165C30.6249 25.0103 30.7562 25.4186 30.8437 25.8123C31.0122 26.5763 31.2365 27.3269 31.5145 28.0582L29.4729 29.0207C29.1219 29.1818 28.8492 29.4755 28.7145 29.8373C28.5687 30.1924 28.5687 30.5906 28.7145 30.9457C30.8134 35.4414 34.4272 39.0552 38.9229 41.154C39.2779 41.2999 39.6761 41.2999 40.0312 41.154C40.3931 41.0193 40.6868 40.7466 40.8479 40.3957L41.7666 38.354C42.519 38.6283 43.2887 38.8525 44.0708 39.0248C44.4499 39.1123 44.8583 39.1853 45.252 39.2436C45.581 39.3177 45.8741 39.5035 46.0815 39.7694C46.2889 40.0353 46.3978 40.3648 46.3895 40.7019L46.5208 45.2082ZM37.9166 20.4165C37.5812 20.4165 37.2312 20.4165 36.8958 20.4165C36.509 20.4494 36.1511 20.6346 35.9009 20.9313C35.6506 21.228 35.5285 21.612 35.5614 21.9988C35.5943 22.3856 35.7795 22.7434 36.0762 22.9937C36.3729 23.2439 36.7569 23.366 37.1437 23.3332H37.9166C40.2373 23.3332 42.4629 24.255 44.1038 25.896C45.7447 27.5369 46.6666 29.7625 46.6666 32.0832C46.6666 32.3457 46.6666 32.5936 46.6666 32.8561C46.6343 33.2408 46.7558 33.6227 47.0046 33.9179C47.2534 34.2131 47.6091 34.3977 47.9937 34.4311H48.1104C48.4754 34.4326 48.8278 34.2971 49.0978 34.0514C49.3678 33.8056 49.5358 33.4676 49.5687 33.104C49.5687 32.7686 49.5687 32.4186 49.5687 32.0832C49.5687 28.9915 48.3415 26.0262 46.1568 23.8387C43.972 21.6512 41.0083 20.4204 37.9166 20.4165ZM40.8333 32.0832C40.8333 32.4699 40.9869 32.8409 41.2604 33.1144C41.5339 33.3879 41.9048 33.5415 42.2916 33.5415C42.6784 33.5415 43.0493 33.3879 43.3228 33.1144C43.5963 32.8409 43.7499 32.4699 43.7499 32.0832C43.7499 30.5361 43.1354 29.0523 42.0414 27.9584C40.9474 26.8644 39.4637 26.2498 37.9166 26.2498C37.5298 26.2498 37.1589 26.4035 36.8854 26.677C36.6119 26.9505 36.4583 27.3214 36.4583 27.7082C36.4583 28.0949 36.6119 28.4659 36.8854 28.7394C37.1589 29.0129 37.5298 29.1665 37.9166 29.1665C38.6902 29.1665 39.432 29.4738 39.979 30.0208C40.526 30.5678 40.8333 31.3096 40.8333 32.0832Z" fill="#F0FDF4"/>
</svg>
